<svg width="21" height="21" viewBox="0 0 21 21" fill="none" xmlns="http://www.w3.org/2000/svg">
<path d="M10.4884 10.5449C13.1525 10.5449 15.3009 8.22461 15.3009 5.3457C15.3009 2.53125 13.1417 0.253906 10.4884 0.253906C7.84583 0.253906 5.67591 2.54199 5.68665 5.35645C5.69739 8.22461 7.82435 10.5449 10.4884 10.5449ZM10.4884 8.26758C9.14564 8.26758 8.02845 7.05371 8.01771 5.3457C8.00696 3.71289 9.15638 2.52051 10.4884 2.52051C11.8419 2.52051 12.9591 3.70215 12.9591 5.3457C12.9591 7.04297 11.8419 8.26758 10.4884 8.26758ZM3.88196 20.6104H17.0949C19.0607 20.6104 20.0382 19.9443 20.0382 18.5479C20.0382 15.3896 16.1388 11.6621 10.4884 11.6621C4.82728 11.6621 0.938604 15.3896 0.938604 18.5479C0.938604 19.9443 1.91614 20.6104 3.88196 20.6104ZM3.79603 18.3438C3.59192 18.3438 3.52747 18.2578 3.52747 18.0967C3.52747 16.6572 6.06263 13.9287 10.4884 13.9287C14.9142 13.9287 17.4493 16.6572 17.4493 18.0967C17.4493 18.2578 17.3849 18.3438 17.17 18.3438H3.79603Z" fill="white"/>
</svg>
