<svg width="22" height="23" viewBox="0 0 22 23" fill="none" xmlns="http://www.w3.org/2000/svg">
<path d="M0.193359 9.40723C0.193359 14.4023 4.24316 18.4521 9.23828 18.4521C10.9033 18.4521 12.4395 17.9902 13.75 17.1953L18.0684 21.5137C18.4873 21.9326 19.0459 22.1367 19.626 22.1367C20.8721 22.1367 21.7959 21.1914 21.7959 19.9668C21.7959 19.3867 21.5918 18.8496 21.1729 18.4199L16.8975 14.1338C17.7783 12.7803 18.2939 11.1582 18.2939 9.40723C18.2939 4.40137 14.2441 0.351562 9.23828 0.351562C4.24316 0.351562 0.193359 4.40137 0.193359 9.40723ZM3.25488 9.40723C3.25488 6.09863 5.94043 3.42383 9.23828 3.42383C12.5469 3.42383 15.2324 6.09863 15.2324 9.40723C15.2324 12.7158 12.5469 15.3906 9.23828 15.3906C5.94043 15.3906 3.25488 12.7158 3.25488 9.40723Z" fill="white"/>
</svg>
